<svg width="24" height="24" viewBox="0 0 24 24" fill="none" xmlns="http://www.w3.org/2000/svg">
<path d="M12 22C17.5228 22 22 17.5229 22 12C22 6.47718 17.5228 2.00003 12 2.00003C6.47715 2.00003 2 6.47718 2 12C2 17.5229 6.47715 22 12 22Z" stroke="#3F4040" stroke-width="1.5" stroke-linecap="round" stroke-linejoin="round"/>
<path d="M7.99998 3.00003H8.99998C7.04998 8.84003 7.04998 15.16 8.99998 21H7.99998" stroke="#3F4040" stroke-width="1.5" stroke-linecap="round" stroke-linejoin="round"/>
<path d="M15 3.00003C16.95 8.84003 16.95 15.16 15 21" stroke="#3F4040" stroke-width="1.5" stroke-linecap="round" stroke-linejoin="round"/>
<path d="M3 16V15C8.84 16.95 15.16 16.95 21 15V16" stroke="#3F4040" stroke-width="1.5" stroke-linecap="round" stroke-linejoin="round"/>
<path d="M3 9.00003C8.84 7.05003 15.16 7.05003 21 9.00003" stroke="#3F4040" stroke-width="1.5" stroke-linecap="round" stroke-linejoin="round"/>
</svg>
