<svg width="25" height="24" viewBox="0 0 25 24" fill="none" xmlns="http://www.w3.org/2000/svg">
<path d="M2.5 9.99997V14C2.5 16 3.5 17 5.5 17H6.93C7.3 17 7.67 17.11 7.99 17.3L10.91 19.13C13.43 20.71 15.5 19.56 15.5 16.59V7.40997C15.5 4.42997 13.43 3.28997 10.91 4.86997L7.99 6.69997C7.67 6.88997 7.3 6.99997 6.93 6.99997H5.5C3.5 6.99997 2.5 7.99997 2.5 9.99997Z" stroke="#3F4040" stroke-width="1.5"/>
<path d="M18.5 8C20.28 10.37 20.28 13.63 18.5 16" stroke="#3F4040" stroke-width="1.5" stroke-linecap="round" stroke-linejoin="round"/>
<path d="M20.33 5.5C23.22 9.35 23.22 14.65 20.33 18.5" stroke="#3F4040" stroke-width="1.5" stroke-linecap="round" stroke-linejoin="round"/>
</svg>
